<svg xmlns="http://www.w3.org/2000/svg" xmlns:xlink="http://www.w3.org/1999/xlink" id="svg" version="1.1" viewBox="34.99 10.35 329.98 78.91"><g id="svgg"><path id="path0" d="M51.959 34.510 C 48.699 34.744,45.738 35.716,42.943 37.469 C 35.879 41.900,32.996 51.914,36.455 60.000 C 38.897 65.706,43.065 68.924,50.083 70.522 C 51.432 70.829,57.396 70.831,58.667 70.524 C 61.545 69.830,65.171 68.375,66.092 67.543 C 66.271 67.382,66.717 67.029,67.083 66.760 C 69.509 64.975,71.416 62.142,72.812 58.250 C 72.963 57.830,73.328 55.870,73.332 55.458 C 73.333 55.390,70.821 55.333,67.750 55.333 C 63.786 55.333,62.167 55.387,62.167 55.517 C 62.167 55.972,61.243 57.470,60.531 58.170 C 58.176 60.488,54.689 61.179,51.083 60.043 C 44.284 57.900,44.226 47.545,51.000 45.160 C 53.555 44.261,57.748 44.693,59.433 46.030 C 60.351 46.758,61.346 47.954,61.761 48.827 L 62.239 49.833 67.703 49.833 L 73.167 49.833 73.167 49.202 C 73.167 48.562,72.789 46.861,72.511 46.250 C 72.427 46.067,72.225 45.542,72.060 45.083 C 70.489 40.701,65.909 36.631,61.083 35.330 C 60.808 35.256,60.147 35.076,59.614 34.930 C 58.815 34.712,54.503 34.279,53.917 34.359 C 53.825 34.371,52.944 34.439,51.959 34.510 M221.459 34.510 C 218.327 34.735,215.305 35.699,212.670 37.314 C 206.853 40.881,203.747 47.875,204.742 55.167 C 205.102 57.806,205.986 60.599,206.860 61.859 C 207.029 62.102,207.167 62.351,207.167 62.412 C 207.167 62.509,207.404 62.847,208.333 64.073 C 209.450 65.546,212.825 68.333,213.492 68.333 C 213.588 68.333,213.667 68.408,213.667 68.500 C 213.667 68.592,213.746 68.667,213.844 68.667 C 213.942 68.667,214.410 68.843,214.886 69.059 C 215.821 69.483,217.983 70.156,219.583 70.522 C 220.930 70.829,226.894 70.831,228.167 70.525 C 233.612 69.213,237.743 66.688,239.798 63.417 C 240.028 63.050,240.262 62.712,240.318 62.667 C 240.531 62.492,241.839 59.737,241.836 59.468 C 241.835 59.313,241.896 59.147,241.974 59.100 C 242.101 59.021,242.323 58.129,242.819 55.696 C 243.693 51.406,242.382 45.443,239.751 41.750 C 237.604 38.735,234.092 36.276,230.583 35.330 C 230.308 35.256,229.647 35.076,229.114 34.930 C 228.315 34.712,224.003 34.279,223.417 34.359 C 223.325 34.371,222.444 34.439,221.459 34.510 M303.143 34.504 C 296.593 35.003,290.472 39.014,288.143 44.333 C 287.963 44.746,287.747 45.233,287.663 45.417 C 284.526 52.303,286.983 62.232,292.975 66.888 C 293.663 67.422,295.144 68.333,295.325 68.333 C 295.421 68.333,295.500 68.408,295.500 68.500 C 295.500 68.592,295.594 68.667,295.708 68.668 C 295.823 68.668,296.107 68.768,296.341 68.890 C 296.979 69.223,298.985 69.941,299.833 70.140 C 300.246 70.237,300.996 70.413,301.500 70.531 C 303.497 70.997,309.616 70.776,311.500 70.168 C 311.729 70.095,312.367 69.908,312.917 69.754 C 313.986 69.455,314.001 69.449,315.703 68.675 C 319.749 66.834,323.568 62.513,324.102 59.172 L 324.209 58.500 318.515 58.500 L 312.820 58.500 312.131 59.183 C 310.475 60.822,305.602 61.720,303.083 60.849 C 300.434 59.934,298.756 58.598,297.773 56.622 L 297.173 55.417 311.003 55.374 L 324.833 55.331 324.830 53.041 C 324.825 49.268,324.334 47.054,322.799 43.881 C 320.906 39.965,316.669 36.477,312.417 35.330 C 312.142 35.256,311.467 35.072,310.917 34.922 C 310.367 34.772,308.979 34.580,307.833 34.496 C 305.542 34.328,305.457 34.328,303.143 34.504 M159.083 34.851 C 158.808 34.938,158.321 35.088,158.000 35.183 C 155.975 35.782,153.924 37.016,152.564 38.452 C 151.833 39.222,151.833 39.222,151.833 37.000 L 151.833 35.000 146.500 35.000 L 141.167 35.000 141.167 52.583 L 141.167 70.167 146.500 70.167 L 151.833 70.167 151.833 60.864 C 151.833 50.161,151.943 49.015,153.144 47.201 C 155.446 43.723,162.661 44.005,164.486 47.644 C 165.282 49.232,165.333 50.015,165.333 60.472 L 165.333 70.167 170.742 70.167 L 176.150 70.167 176.206 59.875 C 176.268 48.475,176.225 48.938,177.405 47.154 C 179.701 43.686,186.972 44.033,188.698 47.694 C 189.600 49.606,189.560 49.075,189.627 59.958 L 189.689 70.167 195.011 70.167 L 200.333 70.167 200.333 59.777 C 200.333 46.695,200.196 45.519,198.202 41.502 C 194.269 33.578,181.573 32.152,174.460 38.834 C 173.428 39.803,173.455 39.796,173.076 39.208 C 172.506 38.325,170.465 36.500,170.047 36.500 C 169.930 36.500,169.833 36.443,169.833 36.374 C 169.833 36.197,168.442 35.602,167.333 35.304 C 165.010 34.680,160.420 34.428,159.083 34.851 M264.417 34.747 C 264.325 34.776,263.837 34.923,263.333 35.073 C 261.420 35.642,259.593 36.733,258.309 38.073 C 258.007 38.389,258.000 38.357,258.000 36.698 L 258.000 35.000 252.667 35.000 L 247.333 35.000 247.333 52.583 L 247.333 70.167 252.667 70.167 L 258.000 70.167 258.000 60.762 C 258.000 48.840,258.065 48.327,259.813 46.526 C 262.048 44.224,267.456 44.178,269.720 46.442 C 270.057 46.780,270.333 47.156,270.333 47.278 C 270.333 47.400,270.408 47.500,270.500 47.500 C 270.592 47.500,270.667 47.635,270.667 47.800 C 270.667 47.965,270.735 48.171,270.819 48.258 C 271.369 48.832,271.500 51.220,271.500 60.721 L 271.500 70.167 276.833 70.167 L 282.167 70.167 282.165 60.375 C 282.164 51.123,282.040 47.627,281.660 46.086 C 280.573 41.680,279.245 39.434,276.407 37.196 C 275.687 36.628,273.514 35.620,272.333 35.306 C 270.335 34.775,269.433 34.667,267.083 34.680 C 265.708 34.687,264.508 34.717,264.417 34.747 M87.000 35.246 C 85.419 35.474,84.086 35.764,83.583 35.988 C 83.400 36.069,82.781 36.344,82.208 36.597 C 81.635 36.851,81.167 37.115,81.167 37.185 C 81.167 37.254,81.035 37.354,80.875 37.406 C 80.217 37.619,78.510 39.555,77.924 40.750 C 75.509 45.682,76.877 51.820,80.979 54.451 C 83.981 56.377,85.691 56.659,94.381 56.663 C 100.389 56.666,101.054 56.694,101.464 56.956 C 102.799 57.810,103.019 59.409,101.959 60.544 L 101.455 61.083 89.644 61.128 L 77.833 61.173 77.833 65.680 L 77.833 70.186 90.292 70.117 C 103.582 70.044,103.115 70.071,105.417 69.253 C 107.438 68.535,110.500 66.018,110.500 65.075 C 110.500 64.942,110.566 64.833,110.647 64.833 C 110.728 64.833,110.836 64.702,110.886 64.542 C 110.937 64.381,111.105 63.913,111.261 63.500 C 113.137 58.524,111.619 52.832,107.780 50.444 C 104.849 48.620,103.095 48.340,94.583 48.336 C 86.819 48.332,86.327 48.206,86.274 46.201 C 86.217 44.020,85.783 44.091,99.375 44.037 L 111.000 43.991 111.000 39.496 L 111.000 35.000 99.708 35.021 C 91.776 35.036,87.995 35.103,87.000 35.246 M323.500 35.146 C 323.500 35.288,323.971 36.397,324.748 38.083 C 324.959 38.542,325.370 39.442,325.663 40.083 C 325.955 40.725,326.368 41.625,326.582 42.083 C 326.795 42.542,327.244 43.517,327.580 44.250 C 327.915 44.983,328.329 45.883,328.500 46.250 C 328.787 46.866,329.325 48.038,330.492 50.583 C 330.744 51.133,331.066 51.846,331.208 52.167 C 331.350 52.487,331.811 53.483,332.233 54.380 C 332.655 55.276,333.000 56.042,333.000 56.082 C 333.000 56.122,333.412 57.026,333.917 58.091 C 334.421 59.156,334.833 60.054,334.833 60.087 C 334.833 60.120,335.178 60.882,335.599 61.782 C 336.020 62.681,336.481 63.679,336.624 64.000 C 336.767 64.321,337.159 65.183,337.496 65.917 C 339.385 70.034,339.437 70.000,331.309 70.000 L 325.333 70.000 325.333 74.750 L 325.333 79.500 332.542 79.500 C 344.589 79.499,346.106 78.793,349.000 71.833 C 349.286 71.146,349.658 70.283,349.826 69.917 C 349.994 69.550,350.246 68.987,350.385 68.667 C 350.524 68.346,350.832 67.657,351.069 67.136 C 351.306 66.614,351.500 66.152,351.500 66.109 C 351.500 66.065,351.767 65.442,352.092 64.723 C 352.418 64.005,352.880 62.967,353.118 62.417 C 353.357 61.867,353.727 61.034,353.942 60.567 C 354.157 60.099,354.333 59.671,354.333 59.616 C 354.333 59.560,354.553 59.043,354.822 58.466 C 355.090 57.889,355.545 56.854,355.832 56.167 C 356.119 55.479,356.492 54.617,356.661 54.250 C 356.957 53.611,357.226 53.011,357.986 51.301 C 358.177 50.870,358.333 50.483,358.333 50.441 C 358.333 50.398,358.602 49.775,358.931 49.057 C 359.260 48.338,359.710 47.354,359.931 46.870 C 360.152 46.387,360.333 45.920,360.333 45.834 C 360.333 45.747,360.469 45.431,360.634 45.130 C 360.799 44.829,361.107 44.171,361.318 43.667 C 361.885 42.310,362.162 41.678,362.603 40.733 C 362.821 40.266,363.000 39.827,363.000 39.758 C 363.000 39.690,363.287 39.022,363.637 38.275 C 363.987 37.528,364.375 36.654,364.498 36.333 C 364.622 36.012,364.796 35.654,364.885 35.538 C 365.136 35.210,365.255 35.219,359.167 35.101 L 353.417 34.990 353.190 35.506 C 353.065 35.789,352.748 36.579,352.485 37.262 C 352.222 37.944,351.856 38.835,351.670 39.242 C 351.485 39.649,351.333 40.062,351.333 40.160 C 351.333 40.258,351.265 40.468,351.181 40.627 C 350.940 41.083,350.500 42.123,350.500 42.235 C 350.500 42.291,350.359 42.655,350.186 43.043 C 350.014 43.432,349.778 44.012,349.661 44.333 C 349.545 44.654,349.351 45.142,349.231 45.417 C 349.110 45.692,348.370 47.529,347.586 49.500 C 346.802 51.471,346.092 53.233,346.008 53.417 C 345.923 53.600,345.802 53.938,345.738 54.167 C 345.674 54.396,345.406 55.054,345.144 55.629 C 344.881 56.204,344.666 56.767,344.666 56.879 C 344.664 57.192,344.272 56.371,343.764 54.993 C 343.513 54.309,343.239 53.600,343.156 53.417 C 343.073 53.233,342.366 51.471,341.583 49.500 C 340.801 47.529,340.090 45.767,340.002 45.583 C 339.915 45.400,339.539 44.462,339.167 43.500 C 338.464 41.685,338.230 41.118,337.981 40.627 C 337.900 40.468,337.833 40.258,337.833 40.160 C 337.833 40.062,337.689 39.664,337.512 39.275 C 337.335 38.887,337.006 38.085,336.782 37.493 C 336.558 36.901,336.235 36.098,336.064 35.708 L 335.755 35.000 329.627 35.000 C 326.234 35.000,323.500 35.065,323.500 35.146 M307.385 43.350 C 310.146 43.773,313.828 46.737,313.833 48.542 C 313.833 48.610,310.126 48.667,305.595 48.667 L 297.357 48.667 297.493 48.191 C 298.438 44.895,302.975 42.675,307.385 43.350 M226.258 44.912 C 229.253 45.692,231.147 47.545,231.862 50.394 C 233.577 57.225,227.671 62.280,220.588 60.044 C 215.883 58.558,213.942 52.281,216.855 47.972 C 217.488 47.036,218.774 45.833,219.142 45.833 C 219.247 45.833,219.333 45.777,219.333 45.707 C 219.333 45.581,219.934 45.348,221.333 44.931 C 222.372 44.622,225.104 44.611,226.258 44.912 " stroke="none" fill="#fcfcfc" fill-rule="evenodd"/><path id="path1" d="M112.556 10.625 C 112.217 11.614,111.108 13.664,110.868 13.744 C 109.774 14.110,108.045 16.522,107.520 18.417 C 107.118 19.867,107.595 23.833,108.172 23.833 C 108.241 23.833,108.342 24.012,108.397 24.231 C 108.692 25.406,112.020 27.459,114.113 27.757 C 115.246 27.919,116.557 28.266,117.217 28.579 C 119.237 29.537,120.041 32.702,118.638 34.171 C 117.942 34.899,118.110 35.217,119.378 35.567 C 122.256 36.363,123.494 40.654,121.423 42.660 C 120.653 43.407,120.671 43.743,121.503 44.168 C 123.014 44.939,124.000 46.625,124.000 48.436 C 124.000 49.538,123.730 50.667,123.467 50.667 C 123.393 50.667,123.332 50.760,123.331 50.875 C 123.326 51.208,122.453 52.109,121.536 52.726 C 120.750 53.254,120.186 53.470,118.125 54.026 C 117.690 54.143,117.334 54.279,117.336 54.328 C 117.365 55.345,118.150 56.500,118.812 56.500 C 119.325 56.500,119.296 56.450,119.744 58.083 C 120.715 61.622,120.704 67.711,119.720 71.333 C 119.583 71.837,119.403 72.512,119.321 72.833 C 119.111 73.648,118.750 74.639,118.614 74.775 C 118.551 74.837,118.500 74.987,118.500 75.108 C 118.500 75.422,117.235 78.042,116.404 79.448 C 114.933 81.935,112.251 85.059,110.417 86.420 C 110.050 86.692,109.712 86.957,109.667 87.008 C 109.621 87.059,109.300 87.273,108.954 87.483 C 108.608 87.694,108.233 87.953,108.121 88.059 C 108.008 88.165,107.599 88.402,107.210 88.585 C 105.730 89.280,106.583 89.489,108.833 88.981 C 116.349 87.287,123.199 82.422,127.690 75.590 C 128.410 74.494,129.000 73.500,129.000 73.382 C 129.000 73.264,129.057 73.167,129.126 73.167 C 129.195 73.167,129.358 72.923,129.488 72.625 C 129.618 72.327,129.962 71.558,130.253 70.917 C 131.583 67.984,132.822 63.089,132.830 60.730 L 132.833 59.876 133.667 59.766 L 134.500 59.655 134.500 58.244 L 134.500 56.832 133.815 56.214 C 131.973 54.550,130.884 51.770,131.039 49.127 C 131.164 46.991,131.738 45.607,133.208 43.904 C 133.738 43.290,133.752 43.101,133.423 40.985 C 132.887 37.543,132.902 37.611,131.747 33.250 C 130.995 30.414,128.358 24.298,126.859 21.917 C 126.629 21.550,126.357 21.100,126.255 20.917 C 125.910 20.293,124.435 18.084,124.217 17.863 C 124.098 17.742,124.000 17.576,124.000 17.495 C 124.000 17.213,122.414 15.749,121.750 15.417 C 121.383 15.233,121.058 15.027,121.028 14.958 C 120.997 14.890,120.905 14.833,120.823 14.833 C 120.740 14.833,120.263 14.571,119.761 14.250 C 119.260 13.929,118.805 13.667,118.750 13.667 C 118.695 13.667,118.240 13.404,117.739 13.083 C 117.237 12.762,116.787 12.500,116.739 12.500 C 116.690 12.500,116.240 12.237,115.739 11.917 C 115.237 11.596,114.772 11.333,114.705 11.333 C 114.638 11.332,114.246 11.108,113.833 10.833 C 112.971 10.260,112.697 10.215,112.556 10.625 M116.861 15.980 C 118.164 16.546,118.954 17.496,119.395 19.026 C 120.812 23.941,114.297 27.004,111.050 22.949 C 110.146 21.819,110.097 18.896,110.961 17.640 C 112.166 15.889,114.888 15.123,116.861 15.980 " stroke="none" fill="#fc149c" fill-rule="evenodd"/><path id="path2" d="" stroke="none" fill="#fc100cc" fill-rule="evenodd"/><path id="path3" d="" stroke="none" fill="#fc100cc" fill-rule="evenodd"/><path id="path4" d="" stroke="none" fill="#fc100cc" fill-rule="evenodd"/></g></svg>