<svg id="svg" version="1.1" xmlns="http://www.w3.org/2000/svg" xmlns:xlink="http://www.w3.org/1999/xlink" width="400" height="86.95652173913044" viewBox="0, 0, 400,86.95652173913044"><g id="svgg"><path id="path0" d="M33.568 21.750 C 33.472 22.135,33.389 22.167,32.496 22.167 C 31.327 22.167,31.000 22.275,31.000 22.663 C 31.000 22.881,30.822 22.980,30.301 23.050 C 29.890 23.105,29.496 23.279,29.343 23.473 C 29.200 23.655,28.933 23.830,28.750 23.861 C 28.531 23.900,28.399 24.073,28.365 24.366 C 28.325 24.711,28.211 24.825,27.865 24.865 C 27.547 24.902,27.401 25.026,27.363 25.292 C 27.325 25.563,27.198 25.667,26.905 25.667 C 26.587 25.667,26.500 25.754,26.500 26.072 C 26.500 26.365,26.396 26.492,26.125 26.530 C 25.806 26.575,25.742 26.700,25.700 27.359 C 25.657 28.024,25.591 28.149,25.242 28.237 C 24.851 28.335,24.833 28.397,24.833 29.670 C 24.833 30.885,24.805 31.000,24.503 31.000 C 23.814 31.000,23.764 36.705,24.452 36.802 C 24.801 36.852,24.824 36.947,24.869 38.469 C 24.913 39.961,24.945 40.096,25.292 40.248 C 25.511 40.344,25.667 40.559,25.667 40.765 C 25.667 40.959,25.854 41.320,26.082 41.566 C 26.310 41.813,26.542 42.192,26.596 42.409 C 26.654 42.640,26.861 42.846,27.093 42.904 C 27.312 42.959,27.570 43.153,27.667 43.334 C 27.777 43.540,28.092 43.704,28.505 43.770 C 29.060 43.859,29.167 43.939,29.167 44.271 C 29.167 44.635,29.234 44.667,30.000 44.667 C 30.691 44.667,30.833 44.718,30.833 44.967 C 30.833 45.445,31.181 45.667,31.931 45.667 C 32.469 45.667,32.646 45.737,32.708 45.975 C 32.798 46.317,33.457 46.500,34.604 46.500 C 35.207 46.500,35.333 46.554,35.333 46.814 C 35.333 47.218,35.766 47.328,37.357 47.331 C 38.576 47.333,38.635 47.351,38.735 47.750 C 38.835 48.147,38.897 48.167,40.060 48.167 C 41.199 48.167,41.292 48.194,41.470 48.583 C 41.638 48.952,41.762 49.000,42.554 49.000 C 43.444 49.000,44.000 49.309,44.000 49.805 C 44.000 49.912,44.188 50.000,44.417 50.000 C 44.753 50.000,44.833 50.083,44.833 50.428 C 44.833 50.987,45.115 51.500,45.423 51.500 C 45.859 51.500,45.736 52.467,45.292 52.530 C 45.023 52.568,44.902 52.713,44.864 53.042 C 44.823 53.402,44.724 53.500,44.406 53.500 C 44.086 53.500,44.000 53.587,44.000 53.908 C 44.000 54.283,43.929 54.320,43.125 54.366 C 42.363 54.410,42.243 54.465,42.197 54.792 C 42.110 55.403,39.500 55.370,39.500 54.757 C 39.500 54.361,39.456 54.346,38.208 54.299 C 37.029 54.254,36.912 54.219,36.865 53.889 C 36.823 53.595,36.665 53.508,36.006 53.418 C 35.420 53.337,35.177 53.222,35.118 53.000 C 35.061 52.782,34.816 52.660,34.278 52.579 C 33.673 52.488,33.508 52.392,33.468 52.107 C 33.432 51.857,33.279 51.734,32.958 51.697 C 32.706 51.668,32.423 51.500,32.328 51.323 C 32.223 51.127,31.900 50.961,31.495 50.896 C 30.940 50.808,30.833 50.727,30.833 50.395 C 30.833 50.085,30.744 50.000,30.417 50.000 C 30.088 50.000,30.000 49.915,30.000 49.601 C 30.000 49.103,29.480 48.947,28.327 49.100 C 27.652 49.189,27.500 49.270,27.500 49.538 C 27.500 49.719,27.275 50.076,27.000 50.333 C 26.693 50.621,26.500 50.967,26.500 51.234 C 26.500 51.584,26.421 51.667,26.083 51.667 C 25.753 51.667,25.667 51.751,25.667 52.072 C 25.667 52.365,25.563 52.492,25.292 52.530 C 25.023 52.568,24.902 52.713,24.864 53.042 C 24.823 53.402,24.724 53.500,24.406 53.500 C 24.084 53.500,24.000 53.586,24.000 53.917 C 24.000 54.218,23.910 54.333,23.677 54.333 C 23.252 54.333,23.171 54.489,23.053 55.538 C 22.999 56.021,22.880 56.510,22.790 56.625 C 22.682 56.762,22.684 56.904,22.798 57.042 C 22.893 57.156,23.023 57.531,23.087 57.875 C 23.175 58.348,23.284 58.500,23.535 58.500 C 23.717 58.500,24.076 58.725,24.333 59.000 C 24.621 59.307,24.967 59.500,25.234 59.500 C 25.584 59.500,25.667 59.579,25.667 59.917 C 25.667 60.251,25.750 60.333,26.087 60.333 C 26.383 60.333,26.555 60.457,26.667 60.750 C 26.803 61.110,26.928 61.167,27.579 61.167 C 28.263 61.167,28.333 61.204,28.333 61.564 C 28.333 61.986,28.684 62.160,29.542 62.164 C 29.840 62.166,30.000 62.255,30.000 62.421 C 30.000 62.772,30.688 63.000,31.749 63.000 C 32.550 63.000,32.649 63.039,32.697 63.375 C 32.747 63.732,32.831 63.752,34.447 63.797 C 36.056 63.842,36.148 63.864,36.197 64.214 C 36.250 64.583,36.255 64.583,40.500 64.630 C 45.162 64.682,45.420 64.658,45.548 64.168 C 45.626 63.871,45.773 63.833,46.877 63.833 C 47.970 63.833,48.172 63.784,48.568 63.417 C 48.815 63.187,49.196 63.000,49.414 63.000 C 50.016 63.000,50.667 62.705,50.667 62.432 C 50.667 62.291,50.859 62.167,51.125 62.136 C 51.485 62.095,51.595 61.985,51.636 61.625 C 51.680 61.241,51.768 61.167,52.178 61.167 C 52.588 61.167,52.667 61.100,52.667 60.750 C 52.667 60.417,52.750 60.333,53.083 60.333 C 53.417 60.333,53.500 60.250,53.500 59.917 C 53.500 59.583,53.583 59.500,53.917 59.500 C 54.245 59.500,54.333 59.415,54.333 59.101 C 54.333 58.815,54.451 58.673,54.750 58.598 C 55.125 58.504,55.167 58.410,55.167 57.663 C 55.167 56.899,55.198 56.833,55.566 56.833 C 56.083 56.833,56.167 56.578,56.167 54.996 C 56.167 53.838,56.209 53.656,56.531 53.431 C 57.200 52.962,57.162 49.388,56.486 49.211 C 56.205 49.138,56.166 48.966,56.164 47.772 C 56.161 46.003,56.065 45.667,55.564 45.667 C 55.199 45.667,55.167 45.600,55.167 44.837 C 55.167 44.090,55.125 43.996,54.750 43.902 C 54.451 43.827,54.333 43.685,54.333 43.399 C 54.333 43.085,54.245 43.000,53.917 43.000 C 53.586 43.000,53.500 42.916,53.500 42.594 C 53.500 42.276,53.402 42.177,53.042 42.136 C 52.713 42.098,52.568 41.977,52.530 41.708 C 52.490 41.427,52.366 41.333,52.030 41.331 C 51.184 41.327,50.833 41.151,50.833 40.731 C 50.833 40.379,50.758 40.333,50.171 40.333 C 49.647 40.333,49.450 40.245,49.235 39.917 C 49.006 39.568,48.831 39.500,48.159 39.500 C 47.454 39.500,47.350 39.455,47.303 39.125 C 47.254 38.778,47.153 38.746,45.969 38.702 C 44.792 38.657,44.684 38.623,44.636 38.285 C 44.586 37.938,44.490 37.914,42.975 37.869 C 41.447 37.824,41.362 37.802,41.269 37.433 C 41.165 37.020,40.567 36.839,39.292 36.835 C 38.791 36.834,38.667 36.771,38.667 36.519 C 38.667 36.191,38.244 36.006,37.485 36.002 C 37.188 36.001,36.994 35.870,36.864 35.583 C 36.759 35.354,36.561 35.167,36.423 35.167 C 36.286 35.167,36.126 34.979,36.068 34.750 C 35.993 34.451,35.851 34.333,35.565 34.333 C 35.214 34.333,35.167 34.257,35.167 33.692 C 35.167 33.059,35.544 32.500,35.971 32.500 C 36.079 32.500,36.167 32.313,36.167 32.083 C 36.167 31.762,36.253 31.667,36.544 31.667 C 36.775 31.667,36.985 31.522,37.085 31.292 C 37.246 30.926,37.325 30.915,40.113 30.871 L 42.976 30.826 43.030 31.204 C 43.076 31.534,43.203 31.594,44.000 31.667 C 44.586 31.720,45.053 31.870,45.294 32.083 C 45.502 32.267,45.989 32.454,46.377 32.500 C 46.939 32.567,47.125 32.675,47.299 33.042 C 47.450 33.357,47.645 33.500,47.926 33.500 C 48.215 33.500,48.333 33.592,48.333 33.816 C 48.333 34.250,48.642 34.333,50.253 34.333 L 51.645 34.333 51.697 33.875 C 51.735 33.549,51.857 33.401,52.121 33.364 C 52.428 33.320,52.510 33.172,52.601 32.489 C 52.696 31.766,52.757 31.667,53.105 31.667 C 53.412 31.667,53.500 31.577,53.500 31.262 C 53.500 30.968,53.604 30.842,53.875 30.803 C 54.128 30.767,54.269 30.616,54.308 30.337 C 54.340 30.110,54.546 29.757,54.767 29.553 C 55.020 29.318,55.167 28.997,55.167 28.675 C 55.167 28.250,55.232 28.167,55.565 28.167 C 55.848 28.167,55.993 28.049,56.066 27.762 C 56.212 27.178,55.910 26.500,55.504 26.500 C 55.255 26.500,55.167 26.391,55.167 26.083 C 55.167 25.750,55.083 25.667,54.750 25.667 C 54.417 25.667,54.333 25.583,54.333 25.250 C 54.333 24.880,54.263 24.833,53.708 24.831 C 53.013 24.828,52.835 24.737,52.566 24.250 C 52.431 24.005,52.176 23.903,51.608 23.866 C 50.911 23.820,50.833 23.774,50.833 23.408 C 50.833 23.030,50.773 23.000,50.003 23.000 C 49.257 23.000,49.162 22.958,49.068 22.583 C 48.968 22.184,48.911 22.167,47.678 22.167 C 46.521 22.167,46.352 22.125,46.000 21.750 L 45.609 21.333 39.641 21.333 L 33.673 21.333 33.568 21.750 M261.444 21.444 C 261.383 21.506,261.333 21.693,261.333 21.861 C 261.333 22.134,261.177 22.167,259.875 22.169 C 258.351 22.172,258.126 22.234,257.955 22.699 C 257.881 22.899,257.619 22.996,257.051 23.032 C 256.376 23.075,256.242 23.140,256.199 23.444 C 256.157 23.738,255.998 23.825,255.338 23.916 C 254.666 24.008,254.512 24.096,254.428 24.430 C 254.355 24.721,254.212 24.833,253.913 24.833 C 253.589 24.833,253.500 24.919,253.500 25.229 C 253.500 25.561,253.394 25.641,252.839 25.730 C 252.441 25.793,252.110 25.960,252.010 26.149 C 251.918 26.321,251.653 26.509,251.421 26.567 C 251.150 26.635,251.000 26.789,251.000 27.000 C 251.000 27.210,250.851 27.364,250.582 27.432 C 250.328 27.496,250.124 27.694,250.064 27.935 C 250.009 28.154,249.858 28.333,249.728 28.333 C 249.459 28.333,249.167 28.991,249.167 29.594 C 249.167 29.916,249.080 30.000,248.750 30.000 C 248.420 30.000,248.333 30.084,248.333 30.405 C 248.333 30.698,248.230 30.825,247.959 30.863 C 247.657 30.906,247.558 31.069,247.441 31.710 C 247.325 32.348,247.219 32.522,246.898 32.603 C 246.547 32.691,246.500 32.798,246.500 33.506 C 246.500 34.213,246.455 34.317,246.125 34.363 C 245.778 34.413,245.746 34.513,245.701 35.708 C 245.654 36.956,245.639 37.000,245.243 37.000 L 244.833 37.000 244.833 43.000 L 244.833 49.000 245.243 49.000 C 245.639 49.000,245.654 49.044,245.701 50.292 C 245.746 51.487,245.778 51.587,246.125 51.637 C 246.456 51.684,246.500 51.786,246.500 52.512 C 246.500 53.277,246.529 53.333,246.917 53.333 C 247.283 53.333,247.333 53.405,247.333 53.928 C 247.333 54.691,247.592 55.167,248.006 55.167 C 248.239 55.167,248.333 55.280,248.333 55.561 C 248.333 55.777,248.513 56.135,248.733 56.354 C 248.953 56.574,249.159 56.941,249.192 57.169 C 249.231 57.449,249.372 57.601,249.625 57.637 C 249.868 57.671,250.000 57.805,250.000 58.015 C 250.000 58.194,250.172 58.419,250.382 58.514 C 250.592 58.610,250.836 58.852,250.923 59.053 C 251.011 59.253,251.247 59.440,251.448 59.469 C 251.675 59.501,251.832 59.658,251.865 59.885 C 251.906 60.174,252.056 60.267,252.583 60.333 C 253.068 60.394,253.295 60.519,253.415 60.792 C 253.515 61.022,253.725 61.167,253.956 61.167 C 254.220 61.167,254.333 61.265,254.333 61.494 C 254.333 61.906,254.808 62.167,255.561 62.167 C 256.038 62.167,256.153 62.234,256.197 62.542 C 256.242 62.861,256.366 62.924,257.031 62.967 C 257.690 63.010,257.821 63.075,257.865 63.384 C 257.912 63.720,258.023 63.754,259.198 63.798 C 260.375 63.843,260.483 63.877,260.531 64.215 L 260.583 64.583 266.500 64.583 L 272.417 64.583 272.469 64.215 C 272.517 63.877,272.625 63.843,273.802 63.798 C 274.978 63.754,275.088 63.720,275.135 63.383 C 275.180 63.067,275.307 63.010,276.052 62.967 C 276.804 62.923,276.924 62.868,276.970 62.542 C 277.013 62.238,277.129 62.167,277.581 62.167 C 278.393 62.167,278.667 62.015,278.667 61.566 C 278.667 61.258,278.756 61.167,279.059 61.167 C 279.275 61.167,279.654 60.979,279.901 60.750 C 280.148 60.521,280.533 60.333,280.755 60.333 C 281.046 60.333,281.189 60.218,281.262 59.926 C 281.325 59.678,281.505 59.499,281.724 59.468 C 281.944 59.437,282.103 59.277,282.135 59.057 C 282.166 58.839,282.345 58.658,282.593 58.596 C 282.888 58.522,283.000 58.380,283.000 58.080 C 283.000 57.750,283.084 57.667,283.417 57.667 C 283.742 57.667,283.833 57.582,283.833 57.277 C 283.833 57.023,283.978 56.821,284.247 56.698 C 284.551 56.560,284.689 56.334,284.767 55.847 C 284.848 55.340,284.956 55.173,285.228 55.134 C 285.477 55.099,285.599 54.944,285.636 54.621 C 285.666 54.367,285.868 53.967,286.086 53.731 C 286.342 53.455,286.500 53.058,286.533 52.610 C 286.572 52.078,286.671 51.878,286.958 51.752 C 287.277 51.612,287.333 51.460,287.333 50.728 C 287.333 50.003,287.412 49.785,287.833 49.333 L 288.333 48.798 288.331 43.107 C 288.328 37.247,288.313 37.082,287.750 36.976 C 287.456 36.920,287.411 36.761,287.368 35.623 C 287.321 34.378,287.305 34.333,286.910 34.333 C 286.529 34.333,286.500 34.274,286.500 33.503 C 286.500 32.761,286.457 32.662,286.092 32.571 C 285.742 32.483,285.676 32.357,285.633 31.692 C 285.591 31.040,285.525 30.908,285.219 30.865 C 284.991 30.832,284.834 30.675,284.802 30.448 C 284.766 30.192,284.616 30.068,284.300 30.031 C 283.892 29.984,283.846 29.908,283.800 29.198 C 283.757 28.533,283.694 28.409,283.375 28.363 C 283.105 28.325,283.000 28.198,283.000 27.908 C 283.000 27.629,282.884 27.477,282.619 27.411 C 282.409 27.358,282.166 27.150,282.077 26.949 C 281.989 26.748,281.764 26.562,281.578 26.535 C 281.392 26.508,281.167 26.321,281.078 26.118 C 280.954 25.836,280.751 25.738,280.208 25.699 C 279.582 25.653,279.500 25.600,279.500 25.240 C 279.500 24.917,279.414 24.833,279.083 24.833 C 278.776 24.833,278.667 24.745,278.667 24.496 C 278.667 24.135,278.100 23.833,277.424 23.833 C 277.149 23.833,277.006 23.712,276.932 23.417 C 276.838 23.045,276.741 23.000,276.036 23.000 C 275.376 23.000,275.219 22.938,275.081 22.625 C 274.934 22.290,274.782 22.245,273.667 22.206 C 272.365 22.161,271.667 21.934,271.667 21.555 C 271.667 21.318,261.679 21.209,261.444 21.444 M70.833 43.000 L 70.833 63.838 76.458 63.794 L 82.083 63.750 82.169 54.750 C 82.216 49.800,82.272 45.881,82.294 46.042 C 82.316 46.205,82.475 46.333,82.656 46.333 C 82.883 46.333,82.993 46.468,83.031 46.792 C 83.068 47.113,83.191 47.265,83.443 47.301 C 83.661 47.332,83.842 47.512,83.904 47.760 C 83.978 48.054,84.120 48.167,84.420 48.167 C 84.804 48.167,84.833 48.225,84.833 48.982 C 84.833 49.713,84.877 49.808,85.250 49.902 C 85.554 49.978,85.667 50.118,85.667 50.420 C 85.667 50.744,85.752 50.833,86.062 50.833 C 86.394 50.833,86.474 50.940,86.563 51.495 C 86.628 51.899,86.793 52.223,86.989 52.328 C 87.166 52.422,87.334 52.668,87.363 52.875 C 87.402 53.144,87.547 53.265,87.875 53.303 C 88.259 53.347,88.333 53.435,88.333 53.844 C 88.333 54.252,88.401 54.333,88.741 54.333 C 89.109 54.333,89.153 54.410,89.199 55.125 C 89.243 55.801,89.305 55.924,89.625 55.970 C 89.896 56.008,90.000 56.135,90.000 56.428 C 90.000 56.749,90.087 56.833,90.417 56.833 C 90.726 56.833,90.833 56.922,90.833 57.176 C 90.833 57.364,91.058 57.758,91.333 58.051 C 91.636 58.375,91.832 58.763,91.833 59.042 C 91.833 59.419,91.907 59.500,92.250 59.500 C 92.583 59.500,92.667 59.583,92.667 59.917 C 92.667 60.250,92.750 60.333,93.083 60.333 C 93.447 60.333,93.500 60.406,93.500 60.903 C 93.500 61.683,93.647 62.000,94.007 62.000 C 94.215 62.000,94.328 62.145,94.364 62.458 C 94.402 62.787,94.523 62.932,94.792 62.970 C 95.063 63.008,95.167 63.135,95.167 63.428 L 95.167 63.833 101.750 63.833 L 108.333 63.833 108.333 63.000 C 108.333 62.188,108.320 62.167,107.842 62.167 C 107.367 62.167,107.349 62.138,107.300 61.292 C 107.256 60.529,107.202 60.410,106.875 60.363 C 106.604 60.325,106.500 60.198,106.500 59.905 C 106.500 59.584,106.413 59.500,106.083 59.500 C 105.729 59.500,105.667 59.423,105.667 58.989 C 105.667 58.371,105.402 57.833,105.098 57.833 C 104.975 57.833,104.830 57.608,104.775 57.333 C 104.696 56.936,104.588 56.833,104.254 56.833 C 103.916 56.833,103.833 56.751,103.833 56.417 C 103.833 56.083,103.750 56.000,103.417 56.000 C 103.028 56.000,103.000 55.944,103.000 55.167 C 103.000 54.389,102.972 54.333,102.583 54.333 C 102.251 54.333,102.167 54.250,102.167 53.920 C 102.167 53.618,102.054 53.478,101.750 53.402 C 101.448 53.326,101.333 53.185,101.333 52.891 C 101.333 52.668,101.156 52.307,100.938 52.090 C 100.721 51.872,100.495 51.501,100.435 51.264 C 100.355 50.946,100.219 50.833,99.913 50.833 C 99.584 50.833,99.500 50.749,99.500 50.417 C 99.500 50.083,99.417 50.000,99.083 50.000 C 98.695 50.000,98.667 49.944,98.667 49.170 C 98.667 48.423,98.625 48.329,98.250 48.235 C 97.951 48.160,97.833 48.018,97.833 47.732 C 97.833 47.418,97.745 47.333,97.417 47.333 C 97.083 47.333,97.000 47.250,97.000 46.917 C 97.000 46.583,96.917 46.500,96.583 46.500 C 96.210 46.500,96.167 46.433,96.167 45.845 C 96.167 45.175,95.838 44.667,95.405 44.667 C 95.262 44.667,95.167 44.500,95.167 44.250 C 95.167 43.919,95.083 43.833,94.760 43.833 C 94.400 43.833,94.347 43.751,94.301 43.125 C 94.262 42.578,94.165 42.379,93.875 42.252 C 93.656 42.156,93.500 41.941,93.500 41.734 C 93.500 41.245,92.573 41.167,86.810 41.167 L 82.169 41.167 82.126 31.708 L 82.083 22.250 76.458 22.206 L 70.833 22.162 70.833 43.000 M120.500 42.998 L 120.500 63.833 125.875 63.831 C 128.831 63.829,131.344 63.769,131.459 63.696 C 131.625 63.590,131.659 59.321,131.626 42.906 L 131.583 22.250 126.042 22.206 L 120.500 22.162 120.500 42.998 M148.333 42.998 L 148.333 63.833 153.500 63.833 L 158.667 63.833 158.667 52.500 L 158.667 41.167 159.068 41.167 C 159.422 41.167,159.482 41.263,159.581 41.985 C 159.675 42.667,159.761 42.821,160.097 42.905 C 160.388 42.978,160.500 43.122,160.500 43.420 C 160.500 43.750,160.584 43.833,160.917 43.833 C 161.250 43.833,161.333 43.917,161.333 44.250 C 161.333 44.578,161.418 44.667,161.731 44.667 C 162.076 44.667,162.144 44.768,162.244 45.436 C 162.325 45.977,162.449 46.228,162.662 46.284 C 162.832 46.328,163.007 46.575,163.061 46.848 C 163.138 47.230,163.248 47.333,163.579 47.333 C 163.917 47.333,164.000 47.416,164.000 47.750 C 164.000 48.077,164.085 48.167,164.395 48.167 C 164.727 48.167,164.808 48.273,164.896 48.828 C 164.963 49.243,165.126 49.556,165.334 49.667 C 165.517 49.765,165.667 49.994,165.667 50.176 C 165.667 50.366,165.841 50.587,166.075 50.693 C 166.299 50.795,166.505 51.037,166.533 51.231 C 166.564 51.446,166.726 51.604,166.948 51.635 C 167.175 51.668,167.332 51.825,167.365 52.052 C 167.401 52.308,167.551 52.432,167.866 52.469 C 168.275 52.516,168.321 52.592,168.366 53.302 C 168.409 53.960,168.474 54.092,168.782 54.135 C 169.037 54.172,169.162 54.322,169.198 54.635 C 169.235 54.953,169.359 55.099,169.625 55.137 C 169.896 55.175,170.000 55.302,170.000 55.595 C 170.000 55.908,170.088 56.000,170.389 56.000 C 170.720 56.000,170.800 56.117,170.930 56.792 C 171.054 57.429,171.156 57.594,171.458 57.637 C 171.729 57.675,171.833 57.802,171.833 58.092 C 171.833 58.381,171.950 58.523,172.250 58.598 C 172.549 58.673,172.667 58.815,172.667 59.101 C 172.667 59.410,172.756 59.500,173.062 59.500 C 173.396 59.500,173.474 59.606,173.567 60.183 C 173.644 60.669,173.771 60.892,174.005 60.953 C 174.217 61.008,174.333 61.181,174.333 61.440 C 174.333 61.702,174.473 61.904,174.737 62.024 C 174.959 62.126,175.186 62.387,175.240 62.604 C 175.312 62.888,175.457 63.000,175.753 63.000 C 176.083 63.000,176.167 63.084,176.167 63.417 L 176.167 63.833 181.750 63.833 L 187.333 63.833 187.333 43.000 L 187.333 22.167 181.750 22.167 L 176.167 22.167 176.147 33.792 C 176.137 40.185,176.095 45.293,176.055 45.141 C 176.015 44.989,175.798 44.819,175.574 44.763 C 175.279 44.688,175.167 44.546,175.167 44.247 C 175.167 43.917,175.082 43.833,174.750 43.833 C 174.425 43.833,174.333 43.748,174.333 43.446 C 174.333 43.233,174.154 42.890,173.935 42.684 C 173.716 42.478,173.493 42.090,173.439 41.822 C 173.372 41.487,173.242 41.333,173.025 41.333 C 172.806 41.333,172.677 41.178,172.608 40.833 C 172.529 40.436,172.422 40.333,172.088 40.333 C 171.750 40.333,171.667 40.251,171.667 39.917 C 171.667 39.586,171.583 39.500,171.259 39.500 C 170.891 39.500,170.847 39.423,170.801 38.708 C 170.757 38.033,170.695 37.909,170.375 37.863 C 170.104 37.825,170.000 37.698,170.000 37.405 C 170.000 37.087,169.913 37.000,169.594 37.000 C 169.276 37.000,169.177 36.902,169.136 36.542 C 169.099 36.219,168.976 36.068,168.721 36.032 C 168.442 35.992,168.333 35.827,168.246 35.312 C 168.165 34.832,168.021 34.593,167.733 34.462 C 167.477 34.345,167.333 34.140,167.333 33.890 C 167.333 33.585,167.242 33.500,166.917 33.500 C 166.584 33.500,166.500 33.416,166.500 33.087 C 166.500 32.784,166.388 32.645,166.083 32.568 C 165.796 32.496,165.667 32.349,165.667 32.095 C 165.667 31.893,165.442 31.475,165.167 31.167 C 164.892 30.859,164.667 30.470,164.667 30.303 C 164.667 30.091,164.542 30.000,164.250 30.000 C 163.917 30.000,163.833 29.917,163.833 29.583 C 163.833 29.253,163.749 29.167,163.428 29.167 C 163.109 29.167,163.011 29.068,162.969 28.708 C 162.932 28.384,162.810 28.235,162.551 28.198 C 162.251 28.155,162.176 28.021,162.134 27.448 C 162.095 26.916,161.996 26.712,161.715 26.588 C 161.513 26.500,161.325 26.275,161.298 26.088 C 161.269 25.884,161.102 25.729,160.875 25.697 C 160.604 25.658,160.500 25.532,160.500 25.238 C 160.500 24.901,160.418 24.833,160.009 24.833 C 159.542 24.833,159.516 24.795,159.467 24.042 C 159.425 23.373,159.360 23.242,159.052 23.198 C 158.796 23.162,158.671 23.012,158.635 22.698 L 158.583 22.250 153.458 22.206 L 148.333 22.162 148.333 42.998 M203.940 23.191 C 203.805 24.488,203.803 62.953,203.938 63.458 L 204.039 63.833 209.186 63.833 L 214.333 63.833 214.333 58.583 L 214.333 53.333 220.011 53.333 C 225.695 53.333,226.333 53.274,226.333 52.744 C 226.333 52.555,226.575 52.500,227.403 52.500 C 228.688 52.500,229.000 52.399,229.000 51.982 C 229.000 51.732,229.122 51.667,229.594 51.667 C 230.303 51.667,230.833 51.415,230.833 51.077 C 230.833 50.928,230.995 50.833,231.250 50.833 C 231.580 50.833,231.667 50.749,231.667 50.428 C 231.667 50.109,231.765 50.011,232.125 49.969 C 232.485 49.928,232.595 49.818,232.636 49.458 C 232.677 49.098,232.776 49.000,233.094 49.000 C 233.416 49.000,233.500 48.914,233.500 48.583 C 233.500 48.250,233.583 48.167,233.917 48.167 C 234.250 48.167,234.333 48.083,234.333 47.750 C 234.333 47.417,234.417 47.333,234.750 47.333 C 235.104 47.333,235.167 47.256,235.167 46.823 C 235.167 46.460,235.311 46.190,235.667 45.891 C 236.097 45.529,236.167 45.357,236.167 44.652 C 236.167 43.960,236.215 43.833,236.482 43.833 C 236.936 43.833,237.000 43.532,237.000 41.403 C 237.000 39.843,237.044 39.500,237.244 39.500 C 238.040 39.500,238.110 35.488,237.318 35.281 C 237.032 35.206,237.000 35.031,237.000 33.526 C 237.000 31.741,236.830 31.000,236.421 31.000 C 236.264 31.000,236.167 30.848,236.167 30.604 C 236.167 29.648,235.968 29.167,235.574 29.167 C 235.278 29.167,235.177 29.061,235.136 28.708 C 235.099 28.389,234.976 28.235,234.728 28.199 C 234.456 28.161,234.348 27.994,234.267 27.485 C 234.202 27.077,234.049 26.779,233.872 26.712 C 233.713 26.653,233.384 26.393,233.141 26.135 C 232.842 25.817,232.533 25.667,232.183 25.667 C 231.743 25.667,231.667 25.605,231.667 25.250 C 231.667 24.920,231.583 24.833,231.261 24.833 C 230.998 24.833,230.818 24.713,230.747 24.490 C 230.629 24.120,230.049 23.833,229.414 23.833 C 229.196 23.833,228.815 23.646,228.568 23.417 C 228.174 23.052,227.967 23.000,226.910 23.000 C 225.761 23.000,225.698 22.980,225.598 22.583 L 225.494 22.167 214.771 22.167 L 204.047 22.167 203.940 23.191 M300.500 42.999 L 300.500 63.833 305.667 63.833 L 310.833 63.833 310.833 58.583 L 310.833 53.333 313.500 53.333 L 316.167 53.333 316.167 53.903 C 316.167 54.688,316.314 55.000,316.684 55.000 C 316.924 55.000,317.000 55.121,317.000 55.500 C 317.000 55.922,317.065 56.000,317.417 56.000 C 317.750 56.000,317.833 56.083,317.833 56.417 C 317.833 56.750,317.917 56.833,318.250 56.833 C 318.613 56.833,318.667 56.906,318.667 57.403 C 318.667 58.181,318.813 58.500,319.171 58.500 C 319.372 58.500,319.511 58.669,319.583 59.000 C 319.666 59.378,319.786 59.500,320.075 59.500 C 320.394 59.500,320.476 59.614,320.567 60.183 C 320.644 60.669,320.771 60.892,321.005 60.953 C 321.232 61.012,321.333 61.181,321.333 61.501 C 321.333 61.852,321.431 61.988,321.738 62.066 C 321.991 62.129,322.164 62.308,322.197 62.542 C 322.231 62.783,322.384 62.936,322.625 62.970 C 322.896 63.008,323.000 63.135,323.000 63.428 L 323.000 63.833 329.083 63.833 L 335.167 63.833 335.167 62.601 C 335.167 61.426,335.147 61.365,334.750 61.265 C 334.446 61.188,334.333 61.049,334.333 60.747 C 334.333 60.422,334.248 60.333,333.936 60.333 C 333.591 60.333,333.523 60.232,333.423 59.564 C 333.341 59.019,333.218 58.772,333.001 58.715 C 332.833 58.671,332.650 58.455,332.594 58.234 C 332.522 57.946,332.378 57.833,332.080 57.833 C 331.732 57.833,331.667 57.755,331.667 57.333 C 331.667 56.914,331.601 56.833,331.259 56.833 C 330.891 56.833,330.847 56.756,330.801 56.042 C 330.757 55.366,330.695 55.242,330.375 55.197 C 330.104 55.158,330.000 55.032,330.000 54.738 C 330.000 54.423,329.912 54.333,329.605 54.333 C 329.273 54.333,329.192 54.227,329.104 53.676 C 329.045 53.309,328.857 52.919,328.678 52.793 C 328.501 52.670,328.306 52.366,328.244 52.118 C 328.160 51.785,328.026 51.667,327.732 51.667 C 327.418 51.667,327.333 51.578,327.333 51.250 C 327.333 50.943,327.422 50.833,327.670 50.833 C 327.866 50.833,328.085 50.662,328.193 50.425 C 328.295 50.201,328.537 49.995,328.731 49.967 C 328.976 49.932,329.099 49.776,329.136 49.458 C 329.177 49.098,329.276 49.000,329.594 49.000 C 329.916 49.000,330.000 48.914,330.000 48.583 C 330.000 48.250,330.083 48.167,330.417 48.167 C 330.745 48.167,330.833 48.082,330.833 47.768 C 330.833 47.482,330.951 47.340,331.250 47.265 C 331.617 47.173,331.667 47.071,331.667 46.417 C 331.667 45.770,331.719 45.660,332.068 45.572 C 332.531 45.456,332.661 45.089,332.664 43.887 C 332.666 43.119,332.708 43.017,333.042 42.970 L 333.417 42.917 333.461 37.456 L 333.505 31.995 333.094 31.808 C 332.757 31.654,332.674 31.482,332.633 30.852 C 332.588 30.152,332.542 30.079,332.125 30.031 C 331.694 29.981,331.667 29.928,331.667 29.159 C 331.667 28.424,331.624 28.329,331.250 28.235 C 330.951 28.160,330.833 28.018,330.833 27.732 C 330.833 27.418,330.745 27.333,330.417 27.333 C 330.083 27.333,330.000 27.250,330.000 26.917 C 330.000 26.583,329.917 26.500,329.583 26.500 C 329.250 26.500,329.167 26.417,329.167 26.083 C 329.167 25.755,329.082 25.667,328.768 25.667 C 328.482 25.667,328.340 25.549,328.265 25.250 C 328.185 24.934,328.051 24.833,327.705 24.831 C 326.920 24.827,326.521 24.648,326.468 24.275 C 326.425 23.976,326.288 23.908,325.641 23.867 C 324.976 23.824,324.851 23.758,324.763 23.408 C 324.666 23.022,324.595 23.000,323.453 23.000 C 322.361 23.000,322.230 22.964,322.081 22.625 L 321.917 22.250 311.208 22.207 L 300.500 22.164 300.500 42.999 M343.000 26.917 L 343.000 31.667 349.083 31.667 L 355.165 31.667 355.208 47.708 L 355.250 63.750 360.458 63.794 L 365.667 63.838 365.667 47.752 L 365.667 31.667 371.273 31.667 L 376.878 31.667 377.273 31.241 C 377.874 30.593,377.894 22.845,377.296 22.426 C 376.967 22.195,375.046 22.167,359.963 22.167 L 343.000 22.167 343.000 26.917 M222.081 32.125 C 222.222 32.446,222.373 32.500,223.123 32.500 C 223.941 32.500,224.000 32.527,224.000 32.905 C 224.000 33.180,224.121 33.349,224.375 33.429 C 224.581 33.495,224.848 33.687,224.968 33.857 C 225.088 34.027,225.289 34.167,225.415 34.167 C 225.541 34.167,225.668 34.372,225.697 34.625 C 225.735 34.953,225.856 35.098,226.125 35.137 C 226.495 35.189,226.500 35.222,226.500 37.744 L 226.500 40.297 226.083 40.402 C 225.779 40.478,225.667 40.618,225.667 40.920 C 225.667 41.179,225.572 41.333,225.413 41.333 C 225.274 41.333,225.074 41.521,224.970 41.750 C 224.846 42.022,224.644 42.167,224.390 42.167 C 224.087 42.167,224.000 42.258,224.000 42.575 C 224.000 42.949,223.929 42.987,223.125 43.033 C 222.363 43.077,222.243 43.132,222.197 43.458 L 222.143 43.833 218.238 43.833 L 214.333 43.833 214.333 37.747 L 214.333 31.660 218.125 31.705 C 221.877 31.750,221.918 31.754,222.081 32.125 M269.197 32.042 C 269.243 32.370,269.362 32.423,270.144 32.468 C 270.895 32.511,271.103 32.597,271.450 33.009 C 271.697 33.303,272.025 33.500,272.265 33.500 C 272.554 33.500,272.667 33.592,272.667 33.830 C 272.667 34.044,272.815 34.197,273.088 34.266 C 273.663 34.410,275.333 36.067,275.333 36.493 C 275.333 36.742,275.442 36.833,275.739 36.833 C 276.058 36.833,276.156 36.932,276.197 37.292 C 276.235 37.620,276.356 37.765,276.625 37.803 C 276.965 37.852,277.000 37.947,277.000 38.833 C 277.000 39.770,277.255 40.333,277.679 40.333 C 278.094 40.333,277.848 45.731,277.414 46.142 C 277.083 46.456,277.000 46.699,277.000 47.351 C 277.000 48.110,276.971 48.167,276.583 48.167 C 276.234 48.167,276.167 48.245,276.167 48.655 C 276.167 49.035,276.083 49.155,275.792 49.197 C 275.490 49.240,275.387 49.404,275.264 50.042 C 275.133 50.716,275.053 50.833,274.722 50.833 C 274.423 50.833,274.333 50.926,274.333 51.231 C 274.333 51.574,274.231 51.644,273.592 51.740 C 273.063 51.819,272.821 51.944,272.747 52.176 C 272.682 52.380,272.494 52.500,272.239 52.500 C 271.917 52.500,271.833 52.586,271.833 52.917 C 271.833 53.275,271.758 53.334,271.292 53.336 C 270.351 53.340,270.000 53.503,270.000 53.936 L 270.000 54.333 266.851 54.333 C 264.165 54.333,263.688 54.295,263.604 54.076 C 263.478 53.749,262.496 53.333,261.850 53.333 C 261.465 53.333,261.345 53.251,261.303 52.958 C 261.265 52.690,261.120 52.568,260.792 52.531 C 260.470 52.494,260.333 52.383,260.333 52.159 C 260.333 51.855,260.143 51.762,259.250 51.631 C 259.067 51.603,258.848 51.426,258.764 51.235 C 258.680 51.044,258.456 50.820,258.265 50.736 C 258.074 50.652,257.897 50.433,257.869 50.250 C 257.738 49.357,257.645 49.167,257.341 49.167 C 257.117 49.167,257.006 49.030,256.969 48.708 C 256.932 48.380,256.810 48.235,256.542 48.197 C 256.217 48.151,256.164 48.039,256.150 47.363 C 256.126 46.211,255.958 45.758,255.535 45.697 C 254.993 45.618,254.949 40.333,255.490 40.333 C 255.911 40.333,255.995 40.178,256.113 39.179 C 256.180 38.610,256.335 38.233,256.606 37.979 C 256.823 37.775,257.000 37.439,257.000 37.233 C 257.000 36.969,257.113 36.841,257.375 36.803 C 257.610 36.770,257.769 36.616,257.801 36.392 C 257.829 36.195,258.003 35.994,258.188 35.946 C 258.373 35.898,258.563 35.712,258.610 35.533 C 258.657 35.354,258.876 35.125,259.097 35.024 C 259.319 34.923,259.500 34.726,259.500 34.587 C 259.500 34.444,259.646 34.333,259.837 34.333 C 260.035 34.333,260.252 34.161,260.364 33.917 C 260.479 33.663,260.692 33.500,260.906 33.500 C 261.357 33.500,262.000 33.053,262.000 32.741 C 262.000 32.560,262.229 32.500,262.917 32.500 C 263.783 32.500,263.833 32.477,263.833 32.083 L 263.833 31.667 266.488 31.667 C 269.115 31.667,269.144 31.671,269.197 32.042 M317.951 31.958 C 318.120 32.414,318.342 32.495,319.447 32.497 C 320.447 32.500,320.479 32.514,320.531 32.958 C 320.568 33.287,320.690 33.432,320.958 33.470 C 321.198 33.504,321.333 33.638,321.333 33.842 C 321.333 34.043,321.487 34.199,321.750 34.265 C 322.033 34.336,322.167 34.485,322.167 34.729 C 322.167 34.941,322.320 35.155,322.542 35.252 C 323.163 35.525,323.201 39.433,322.588 40.094 C 322.356 40.344,322.167 40.725,322.167 40.941 C 322.167 41.248,322.076 41.333,321.750 41.333 C 321.417 41.333,321.333 41.417,321.333 41.750 C 321.333 42.083,321.250 42.167,320.917 42.167 C 320.586 42.167,320.500 42.251,320.500 42.575 C 320.500 42.949,320.429 42.987,319.625 43.033 C 318.863 43.077,318.743 43.132,318.697 43.458 L 318.643 43.833 314.738 43.833 L 310.833 43.833 310.833 37.750 L 310.833 31.667 314.339 31.667 C 317.525 31.667,317.854 31.693,317.951 31.958 " stroke="none" fill="#fcfcfc" fill-rule="evenodd"></path><path id="path1" d="M95.278 22.278 C 95.064 22.492,95.149 33.916,95.367 34.133 C 95.515 34.281,97.096 34.333,101.450 34.333 L 107.333 34.333 107.333 28.250 L 107.333 22.167 101.361 22.167 C 98.076 22.167,95.339 22.217,95.278 22.278 " stroke="none" fill="#fc4c0c" fill-rule="evenodd"></path><path id="path2" d="" stroke="none" fill="#fc100c0" fill-rule="evenodd"></path><path id="path3" d="" stroke="none" fill="#fc100c0" fill-rule="evenodd"></path><path id="path4" d="" stroke="none" fill="#fc100c0" fill-rule="evenodd"></path></g></svg>